<?xml version="1.0" encoding="utf-8"?>
<!-- Generator: Adobe Illustrator 16.0.0, SVG Export Plug-In . SVG Version: 6.00 Build 0)  -->
<!DOCTYPE svg PUBLIC "-//W3C//DTD SVG 1.1//EN" "http://www.w3.org/Graphics/SVG/1.1/DTD/svg11.dtd">
<svg version="1.1" id="Layer_1" xmlns="http://www.w3.org/2000/svg" xmlns:xlink="http://www.w3.org/1999/xlink" x="0px" y="0px"
	 width="121.5px" height="31.5px" viewBox="0 0 121.5 31.5" enable-background="new 0 0 121.5 31.5" xml:space="preserve">
<g>
	<g>
		<path fill="#FFFFFF" d="M68.639,1.748v2.521H56.858v7.15H67.19v2.52H56.858v10.301h-2.992V1.748H68.639z"/>
		<path fill="#FFFFFF" d="M72.765,1.748v22.491h-2.677V1.748H72.765z"/>
		<path fill="#FFFFFF" d="M87.853,24.585c-0.693,0-1.245-0.194-1.654-0.583c-0.41-0.388-0.615-1.023-0.615-1.906
			c-0.735,0.883-1.591,1.518-2.567,1.906c-0.977,0.389-2.032,0.583-3.166,0.583c-0.735,0-1.428-0.078-2.08-0.236
			c-0.651-0.158-1.223-0.42-1.717-0.788c-0.494-0.367-0.882-0.839-1.165-1.417c-0.284-0.577-0.426-1.276-0.426-2.095
			c0-0.924,0.158-1.68,0.473-2.269c0.315-0.587,0.729-1.065,1.244-1.433c0.514-0.367,1.103-0.645,1.765-0.834
			c0.661-0.188,1.339-0.346,2.032-0.472c0.734-0.147,1.433-0.257,2.095-0.331c0.661-0.073,1.244-0.178,1.748-0.315
			c0.504-0.136,0.902-0.335,1.197-0.598c0.294-0.262,0.441-0.646,0.441-1.15c0-0.587-0.11-1.06-0.331-1.417
			c-0.22-0.357-0.504-0.63-0.85-0.819c-0.347-0.189-0.735-0.315-1.166-0.378c-0.431-0.063-0.856-0.095-1.276-0.095
			c-1.134,0-2.079,0.216-2.835,0.646c-0.756,0.431-1.166,1.245-1.229,2.441h-2.678c0.042-1.008,0.253-1.858,0.631-2.551
			c0.378-0.693,0.882-1.254,1.512-1.685s1.354-0.741,2.174-0.93c0.819-0.189,1.679-0.283,2.583-0.283
			c0.734,0,1.465,0.053,2.189,0.157c0.725,0.105,1.381,0.32,1.969,0.646c0.588,0.326,1.061,0.783,1.418,1.37
			c0.357,0.588,0.536,1.355,0.536,2.3v8.379c0,0.63,0.036,1.092,0.11,1.386c0.073,0.294,0.32,0.441,0.74,0.441
			c0.231,0,0.504-0.052,0.819-0.158v2.08C89.312,24.448,88.672,24.585,87.853,24.585z M84.104,16.38
			c-0.546,0.115-1.119,0.209-1.717,0.283c-0.599,0.073-1.203,0.158-1.812,0.252c-0.609,0.095-1.155,0.247-1.638,0.457
			c-0.483,0.21-0.877,0.51-1.181,0.898c-0.305,0.389-0.457,0.919-0.457,1.591c0,0.441,0.089,0.813,0.268,1.118
			c0.178,0.305,0.409,0.551,0.693,0.74c0.283,0.189,0.619,0.326,1.008,0.41c0.388,0.084,0.782,0.126,1.181,0.126
			c0.882,0,1.638-0.12,2.268-0.362c0.631-0.241,1.145-0.546,1.544-0.914c0.398-0.368,0.693-0.767,0.882-1.197
			c0.189-0.43,0.284-0.834,0.284-1.212v-2.741C85.091,16.08,84.65,16.264,84.104,16.38z"/>
		<path fill="#FFFFFF" d="M97.649,7.954v2.362h-3.245v10.112c0,0.315,0.026,0.567,0.079,0.756c0.052,0.189,0.152,0.336,0.3,0.441
			c0.146,0.105,0.351,0.173,0.614,0.205c0.262,0.031,0.604,0.047,1.024,0.047h1.228v2.363h-2.047c-0.693,0-1.287-0.048-1.78-0.142
			c-0.494-0.095-0.893-0.268-1.197-0.52c-0.305-0.252-0.531-0.608-0.678-1.071c-0.147-0.462-0.22-1.071-0.22-1.827V10.315h-2.772
			V7.954h2.772V3.071h2.677v4.882H97.649z"/>
		<path fill="#FFFFFF" d="M105.996,7.954v2.362h-3.245v10.112c0,0.315,0.026,0.567,0.079,0.756c0.052,0.189,0.152,0.336,0.3,0.441
			c0.146,0.105,0.351,0.173,0.614,0.205c0.262,0.031,0.604,0.047,1.024,0.047h1.228v2.363h-2.047c-0.693,0-1.287-0.048-1.78-0.142
			c-0.494-0.095-0.893-0.268-1.197-0.52c-0.305-0.252-0.531-0.608-0.678-1.071c-0.147-0.462-0.22-1.071-0.22-1.827V10.315h-2.772
			V7.954h2.772V3.071h2.677v4.882H105.996z"/>
		<path fill="#FFFFFF" d="M112.847,28.396c-0.305,0.546-0.641,0.993-1.008,1.339c-0.368,0.347-0.772,0.599-1.213,0.756
			c-0.441,0.158-0.966,0.237-1.575,0.237c-0.315,0-0.63-0.021-0.945-0.063c-0.315-0.042-0.62-0.116-0.914-0.221v-2.457
			c0.253,0.083,0.509,0.167,0.772,0.252c0.262,0.083,0.53,0.126,0.804,0.126c0.545,0,0.986-0.126,1.323-0.378
			c0.336-0.252,0.63-0.62,0.882-1.103l1.103-2.741l-6.458-16.19h3.024l4.756,13.324h0.063l4.567-13.324h2.835l-7.087,18.427
			C113.461,27.179,113.151,27.85,112.847,28.396z"/>
	</g>
	<g>
		<path fill="#FFFFFF" d="M30.127,8.607c0,2.467-1.278,4.978-3.833,7.533l-10.43,10.044c-0.202,0.202-0.447,0.302-0.737,0.302
			s-0.536-0.1-0.737-0.302L3.944,16.106c-0.111-0.089-0.265-0.234-0.46-0.435c-0.195-0.2-0.505-0.566-0.929-1.096
			c-0.424-0.53-0.804-1.074-1.138-1.632c-0.335-0.558-0.634-1.233-0.896-2.025S0.127,9.354,0.127,8.607
			c0-2.455,0.709-4.375,2.126-5.759C3.671,1.464,5.629,0.772,8.13,0.772c0.691,0,1.397,0.12,2.117,0.36
			c0.72,0.24,1.39,0.563,2.009,0.971c0.62,0.408,1.152,0.79,1.599,1.147c0.446,0.357,0.87,0.737,1.272,1.138
			c0.402-0.401,0.826-0.781,1.272-1.138c0.446-0.357,0.979-0.739,1.599-1.147c0.62-0.407,1.289-0.731,2.009-0.971
			c0.72-0.24,1.425-0.36,2.118-0.36c2.5,0,4.459,0.692,5.876,2.076C29.418,4.232,30.127,6.152,30.127,8.607z M27.984,8.607
			c0-0.904-0.12-1.702-0.36-2.394c-0.24-0.692-0.547-1.242-0.92-1.649c-0.375-0.407-0.829-0.739-1.365-0.996
			c-0.536-0.256-1.061-0.429-1.574-0.519c-0.514-0.089-1.061-0.134-1.641-0.134S20.92,3.057,20.25,3.342
			c-0.669,0.284-1.286,0.642-1.85,1.071c-0.564,0.429-1.046,0.832-1.449,1.205c-0.401,0.374-0.736,0.718-1.004,1.03
			c-0.201,0.245-0.475,0.368-0.82,0.368s-0.62-0.123-0.82-0.368c-0.268-0.312-0.603-0.656-1.004-1.03
			c-0.402-0.374-0.885-0.776-1.449-1.205c-0.563-0.43-1.18-0.787-1.849-1.071C9.334,3.057,8.71,2.915,8.13,2.915
			c-0.581,0-1.128,0.045-1.641,0.134C5.976,3.139,5.451,3.312,4.915,3.568C4.38,3.825,3.925,4.157,3.551,4.564
			C3.177,4.972,2.87,5.521,2.63,6.213c-0.24,0.692-0.359,1.49-0.359,2.394c0,1.875,1.043,3.856,3.13,5.943l9.727,9.375l9.709-9.359
			C26.936,12.469,27.984,10.482,27.984,8.607z"/>
	</g>
</g>
</svg>
